<svg width="18" height="25" viewBox="0 0 18 25" fill="none" xmlns="http://www.w3.org/2000/svg">
<path d="M13.5 12.043C13.4995 11.8939 13.44 11.7511 13.3345 11.6458C13.229 11.5405 13.0861 11.4812 12.937 11.481H5.063C4.91394 11.4815 4.77115 11.541 4.66584 11.6465C4.56053 11.752 4.50126 11.8949 4.501 12.044V13.357C4.50126 13.5062 4.56067 13.6493 4.66619 13.7548C4.77172 13.8603 4.91476 13.9197 5.064 13.92H12.939C13.0881 13.9197 13.231 13.8604 13.3365 13.7551C13.442 13.6498 13.5015 13.507 13.502 13.358L13.5 12.043ZM12.937 15.418H5.063C4.91376 15.4182 4.77072 15.4776 4.66519 15.5832C4.55967 15.6887 4.50026 15.8317 4.5 15.981V17.293C4.50053 17.442 4.56005 17.5848 4.66554 17.6901C4.77104 17.7954 4.91394 17.8547 5.063 17.855H12.938C13.0871 17.8547 13.23 17.7954 13.3355 17.6901C13.441 17.5848 13.5005 17.442 13.501 17.293V15.981C13.5007 15.8316 13.4412 15.6884 13.3355 15.5828C13.2297 15.4773 13.0864 15.418 12.937 15.418ZM18 6.60097C17.9999 6.30562 17.9415 6.01321 17.828 5.74052C17.7146 5.46783 17.5484 5.22024 17.339 5.01197L13.406 1.07897C12.9849 0.65677 12.4133 0.419024 11.817 0.417969H2.25C1.65334 0.418234 1.0812 0.655372 0.659302 1.07727C0.237403 1.49917 0.000265004 2.07131 0 2.66797L0 22.168C0.000265004 22.7646 0.237403 23.3368 0.659302 23.7587C1.0812 24.1806 1.65334 24.4177 2.25 24.418H15.75C16.3467 24.4177 16.9188 24.1806 17.3407 23.7587C17.7626 23.3368 17.9997 22.7646 18 22.168V6.60097ZM12 2.85097L15.567 6.41797H12V2.85097ZM15.75 22.168H2.25V2.66797H9.75V7.54297C9.7496 7.69082 9.77843 7.83729 9.83483 7.97396C9.89123 8.11063 9.97408 8.2348 10.0786 8.33935C10.1832 8.44389 10.3073 8.52674 10.444 8.58314C10.5807 8.63954 10.7272 8.66836 10.875 8.66797H15.75V22.168Z" fill="black"/>
</svg>
